<svg width="361" height="303" viewBox="0 0 361 303" fill="none" xmlns="http://www.w3.org/2000/svg">
<rect width="281" height="281" rx="50" transform="matrix(0.999914 -0.0130896 -0.188924 0.981992 75.0876 26.6782)" fill="url(#paint0_linear_46_1004)"/>
<rect width="281" height="281" rx="50" transform="matrix(0.999914 -0.0130896 -0.188924 0.981992 58 4)" fill="url(#paint1_linear_46_1004)"/>
<g clip-path="url(#clip0_46_1004)">
<path d="M205.731 59.4718L191.186 38.4987L169.037 59.4305L183.582 80.4035L205.731 59.4718Z" fill="#171717"/>
<path d="M91.1605 121.926L83.8887 159.026L169.976 88.3919L154.544 69.8776L91.1605 121.926Z" fill="#171717"/>
<path d="M145.044 150.049L151.81 115.309L81.122 174.136L95.5715 191.295L145.044 150.049Z" fill="#171717"/>
<path d="M172.781 238.117L103.197 156.005L81.2164 174.252L150.801 256.365L172.781 238.117Z" fill="#171717"/>
<path d="M183.305 176.037L160.675 198.281L147.492 177.028L151.659 155.371L166.584 111.457L180.88 104.477L187.761 116.406L181.411 149.411L183.305 176.037Z" fill="#171717"/>
<path d="M196.869 66.2572L187.507 55.269L174.196 66.2802L183.558 77.2685L196.869 66.2572Z" fill="#171717"/>
<path d="M87.8151 138.617L83.8888 159.026L169.976 88.3921L162.01 79.1181L87.8151 138.617Z" fill="#171717"/>
<path d="M145.044 150.049L148.502 132.074L101.324 172.929L107.929 180.681L145.044 150.049Z" fill="#171717"/>
<path d="M172.781 238.117L110.683 164.84L99.4013 174.206L161.499 247.483L172.781 238.117Z" fill="#171717"/>
<path d="M152.845 157.623L167.778 172.582L186.456 154.048L179.517 176.086L160.574 198.805C152.951 187.931 155.115 187.902 147.492 177.028L152.845 157.623Z" fill="#171717"/>
<path d="M164.149 61.6028L191.994 38.487L210.592 60.4341L182.748 83.5498L164.149 61.6028Z" fill="#171717"/>
<path d="M262.158 119.688L255.155 156.784L195.88 88.0528L218.532 69.0399L262.158 119.688Z" fill="#171717"/>
<path d="M197.155 149.367L203.755 114.629L252.107 171.897L230.966 189.522L197.155 149.367Z" fill="#171717"/>
<path d="M135.304 238.608L236.914 154.255L251.968 172.017L150.468 256.942L135.304 238.608Z" fill="#171717"/>
<path d="M146.41 177.042L160.574 198.805L184.286 176.546L188.453 154.889L196.837 111.309L181.879 90.8771L159.006 111.804L150.539 155.579L146.41 177.042Z" fill="#171717"/>
<path d="M171.208 69.9326L188.484 55.5904L200.024 69.2075L182.747 83.5497L171.208 69.9326Z" fill="#171717"/>
<path d="M259.082 136.375L255.155 156.784L195.88 88.053L207.463 78.5231L259.082 136.375Z" fill="#171717"/>
<path d="M197.155 149.367L200.613 131.392L232.269 171.215L222.64 179.18L197.155 149.367Z" fill="#171717"/>
<path d="M146.07 229.303L225.982 163.33L233.709 172.447L153.115 237.572L146.07 229.303Z" fill="#171717"/>
<path d="M189.628 148.781L165.613 172.61L151.651 149.8L146.41 177.042L160.574 198.805C172.43 187.676 172.43 187.676 184.286 176.546L189.628 148.781Z" fill="#171717"/>
</g>
<defs>
<linearGradient id="paint0_linear_46_1004" x1="8.92064" y1="-5.05957e-06" x2="268.177" y2="281" gradientUnits="userSpaceOnUse">
<stop stop-color="#FFF151" stop-opacity="0.5"/>
<stop offset="1" stop-color="#FFD449" stop-opacity="0.5"/>
</linearGradient>
<linearGradient id="paint1_linear_46_1004" x1="8.92064" y1="-5.05957e-06" x2="268.177" y2="281" gradientUnits="userSpaceOnUse">
<stop stop-color="#FFF151"/>
<stop offset="1" stop-color="#FFD449"/>
</linearGradient>
<clipPath id="clip0_46_1004">
<rect width="171" height="223" fill="white" transform="matrix(0.999914 -0.0130896 -0.188924 0.981992 107.005 39.6007)"/>
</clipPath>
</defs>
</svg>
