<svg width="45" height="58" viewBox="0 0 45 58" fill="none" xmlns="http://www.w3.org/2000/svg">
<g clip-path="url(#clip0_0_221)">
<path d="M27.0569 5.6195L22.1548 0L17.3734 5.481L22.2756 11.1005L27.0569 5.6195Z" fill="#FFEE2D"/>
<path d="M-0.00158434 21.8047L-0.0369873 31.6305L19.0913 13.1743L14.0799 8.20459L-0.00158434 21.8047Z" fill="#FFEE2D"/>
<path d="M15.6427 29.4592L15.6646 20.2583L0 35.6327L4.68342 40.2392L15.6427 29.4592Z" fill="#FFEE2D"/>
<path d="M27.4317 52.9405L4.90414 30.8955L0.0308838 35.6643L22.5584 57.7093L27.4317 52.9405Z" fill="#FFEE2D"/>
<path d="M27.0569 36.4927L22.2152 42.3205L17.6582 36.6315V30.8953L19.3671 19.287L22.7848 17.4832L25.2057 20.6745V29.4162L27.0569 36.4927Z" fill="#FFEE2D"/>
<path d="M25.0633 7.39042L22.0355 4.44019L19.0823 7.3177L22.1101 10.2679L25.0633 7.39042Z" fill="#FFD449"/>
<path d="M-0.0369873 26.2248L-0.0369338 31.6304L19.0914 13.1743L16.5189 10.6841L-0.0369873 26.2248Z" fill="#FFD449"/>
<path d="M15.6428 29.4592V24.6985L5.26904 35.3827L7.40512 37.464L15.6428 29.4592Z" fill="#FFD449"/>
<path d="M27.4314 52.9404L7.3277 33.2673L4.82642 35.715L24.9301 55.3881L27.4314 52.9404Z" fill="#FFD449"/>
<path d="M18.0854 31.4976L22.7848 35.5215L26.7721 30.665L26.0601 36.4928L22.2152 42.4593C19.6519 39.5454 20.2215 39.5454 17.6582 36.6315L18.0854 31.4976Z" fill="#FFD449"/>
<path d="M16.194 6.04085L22.3673 -0.000244141L28.3885 5.89197L22.2151 11.933L16.194 6.04085Z" fill="#FFEE2D"/>
<path d="M45.0016 21.8047L45.0369 31.6305L25.9086 13.1743L30.92 8.20459L45.0016 21.8047Z" fill="#FFEE2D"/>
<path d="M29.3574 29.4592L29.3354 20.2583L45 35.6327L40.3166 40.2392L29.3574 29.4592Z" fill="#FFEE2D"/>
<path d="M17.5684 52.9405L40.0958 30.8955L44.9692 35.6643L22.5 57.8613L17.5684 52.9405Z" fill="#FFEE2D"/>
<path d="M17.3734 36.6317L22.2152 42.4595L27.3418 36.6317V30.8955V19.3528L22.358 13.8757L17.3854 19.3528L17.3734 30.9469V36.6317Z" fill="#FFEE2D"/>
<path d="M18.4791 8.27727L22.3094 4.52905L26.0452 8.18489L22.215 11.9331L18.4791 8.27727Z" fill="#FFD449"/>
<path d="M45.037 26.225V31.6307L25.9086 13.1745L28.4809 10.6843L45.037 26.225Z" fill="#FFD449"/>
<path d="M29.3573 29.4594V24.6987L39.7309 35.3829L37.5949 37.4643L29.3573 29.4594Z" fill="#FFD449"/>
<path d="M19.9365 50.5072L37.6721 33.2673L40.1735 35.715L22.215 52.7273L19.9365 50.5072Z" fill="#FFD449"/>
<path d="M27.3418 29.2776L22.2152 35.5216L17.3734 29.4163V36.6317L22.2152 42.4594C24.7785 39.5455 24.7785 39.5455 27.3418 36.6317V29.2776Z" fill="#FFD449"/>
</g>
<defs>
<clipPath id="clip0_0_221">
<rect width="45" height="58" fill="white"/>
</clipPath>
</defs>
</svg>
